<svg xmlns="http://www.w3.org/2000/svg" xmlns:xlink="http://www.w3.org/1999/xlink" id="Camada_3" data-name="Camada 3" viewBox="63.39 433.91 939.98 194.61">
  <defs>
    <style>
      .cls-1 {
        stroke: url(#Gradiente_sem_nome_19-18);
      }

      .cls-1, .cls-2, .cls-3, .cls-4, .cls-5, .cls-6, .cls-7, .cls-8, .cls-9, .cls-10, .cls-11, .cls-12, .cls-13, .cls-14, .cls-15, .cls-16, .cls-17, .cls-18, .cls-19, .cls-20, .cls-21, .cls-22, .cls-23, .cls-24, .cls-25, .cls-26, .cls-27, .cls-28, .cls-29, .cls-30, .cls-31, .cls-32, .cls-33, .cls-34, .cls-35, .cls-36, .cls-37, .cls-38, .cls-39, .cls-40, .cls-41, .cls-42, .cls-43, .cls-44, .cls-45, .cls-46, .cls-47, .cls-48, .cls-49, .cls-50, .cls-51, .cls-52, .cls-53, .cls-54, .cls-55, .cls-56, .cls-57, .cls-58, .cls-59, .cls-60, .cls-61, .cls-62, .cls-63, .cls-64, .cls-65, .cls-66, .cls-67 {
        fill: none;
        stroke-miterlimit: 10;
        stroke-width: 1.5px;
      }

      .cls-2 {
        stroke: url(#Gradiente_sem_nome_19-65);
      }

      .cls-3 {
        stroke: url(#Gradiente_sem_nome_19-11);
      }

      .cls-4 {
        stroke: url(#Gradiente_sem_nome_19-8);
      }

      .cls-5 {
        stroke: url(#Gradiente_sem_nome_19-27);
      }

      .cls-6 {
        stroke: url(#Gradiente_sem_nome_19-28);
      }

      .cls-68 {
        fill: url(#Gradiente_sem_nome_27-8);
      }

      .cls-7 {
        stroke: url(#Gradiente_sem_nome_19-32);
      }

      .cls-69 {
        fill: url(#Gradiente_sem_nome_27-11);
      }

      .cls-8 {
        stroke: url(#Gradiente_sem_nome_19-47);
      }

      .cls-9 {
        stroke: url(#Gradiente_sem_nome_19-40);
      }

      .cls-10 {
        stroke: url(#Gradiente_sem_nome_19-41);
      }

      .cls-70 {
        fill: url(#Gradiente_sem_nome_27-4);
      }

      .cls-11 {
        stroke: url(#Gradiente_sem_nome_19-13);
      }

      .cls-12 {
        stroke: url(#Gradiente_sem_nome_19-46);
      }

      .cls-13 {
        stroke: url(#Gradiente_sem_nome_19-51);
      }

      .cls-14 {
        stroke: url(#Gradiente_sem_nome_19-26);
      }

      .cls-71 {
        fill: url(#Gradiente_sem_nome_27-10);
      }

      .cls-15 {
        stroke: url(#Gradiente_sem_nome_19-17);
      }

      .cls-16 {
        stroke: url(#Gradiente_sem_nome_19-35);
      }

      .cls-17 {
        stroke: url(#Gradiente_sem_nome_19-49);
      }

      .cls-18 {
        stroke: url(#Gradiente_sem_nome_19-25);
      }

      .cls-19 {
        stroke: url(#Gradiente_sem_nome_19-43);
      }

      .cls-20 {
        stroke: url(#Gradiente_sem_nome_19-50);
      }

      .cls-21 {
        stroke: url(#Gradiente_sem_nome_19-23);
      }

      .cls-22 {
        stroke: url(#Gradiente_sem_nome_19-15);
      }

      .cls-23 {
        stroke: url(#Gradiente_sem_nome_19-56);
      }

      .cls-24 {
        stroke: url(#Gradiente_sem_nome_19-62);
      }

      .cls-25 {
        stroke: url(#Gradiente_sem_nome_19-10);
      }

      .cls-26 {
        stroke: url(#Gradiente_sem_nome_19-58);
      }

      .cls-27 {
        stroke: url(#Gradiente_sem_nome_19-12);
      }

      .cls-28 {
        stroke: url(#Gradiente_sem_nome_19-45);
      }

      .cls-29 {
        stroke: url(#Gradiente_sem_nome_19-48);
      }

      .cls-30 {
        stroke: url(#Gradiente_sem_nome_19-22);
      }

      .cls-31 {
        stroke: url(#Gradiente_sem_nome_19-44);
      }

      .cls-32 {
        stroke: url(#Gradiente_sem_nome_19-24);
      }

      .cls-33 {
        stroke: url(#Gradiente_sem_nome_19-36);
      }

      .cls-34 {
        stroke: url(#Gradiente_sem_nome_19-59);
      }

      .cls-35 {
        stroke: url(#Gradiente_sem_nome_19-34);
      }

      .cls-72 {
        fill: url(#Gradiente_sem_nome_27-7);
      }

      .cls-36 {
        stroke: url(#Gradiente_sem_nome_19-54);
      }

      .cls-37 {
        stroke: url(#Gradiente_sem_nome_19-33);
      }

      .cls-38 {
        stroke: url(#Gradiente_sem_nome_19-2);
      }

      .cls-39 {
        stroke: url(#Gradiente_sem_nome_19-42);
      }

      .cls-40 {
        stroke: url(#Gradiente_sem_nome_19-6);
      }

      .cls-41 {
        stroke: url(#Gradiente_sem_nome_19-29);
      }

      .cls-42 {
        stroke: url(#Gradiente_sem_nome_19-14);
      }

      .cls-43 {
        stroke: url(#Gradiente_sem_nome_19-64);
      }

      .cls-73 {
        fill: url(#Gradiente_sem_nome_27-3);
      }

      .cls-44 {
        stroke: url(#Gradiente_sem_nome_19-37);
      }

      .cls-45 {
        stroke: url(#Gradiente_sem_nome_19-19);
      }

      .cls-46 {
        stroke: url(#Gradiente_sem_nome_19-61);
      }

      .cls-47 {
        stroke: url(#Gradiente_sem_nome_19-67);
      }

      .cls-74 {
        fill: url(#Gradiente_sem_nome_27-12);
      }

      .cls-48 {
        stroke: url(#Gradiente_sem_nome_19-21);
      }

      .cls-49 {
        stroke: url(#Gradiente_sem_nome_19-31);
      }

      .cls-50 {
        stroke: url(#Gradiente_sem_nome_19-39);
      }

      .cls-51 {
        stroke: url(#Gradiente_sem_nome_19-55);
      }

      .cls-75 {
        fill: url(#Gradiente_sem_nome_27);
      }

      .cls-52 {
        stroke: url(#Gradiente_sem_nome_19-60);
      }

      .cls-76 {
        fill: url(#Gradiente_sem_nome_27-2);
      }

      .cls-53 {
        stroke: url(#Gradiente_sem_nome_19-30);
      }

      .cls-54 {
        stroke: url(#Gradiente_sem_nome_19-38);
      }

      .cls-55 {
        stroke: url(#Gradiente_sem_nome_19-4);
      }

      .cls-56 {
        stroke: url(#Gradiente_sem_nome_19-63);
      }

      .cls-57 {
        stroke: url(#Gradiente_sem_nome_19-7);
      }

      .cls-58 {
        stroke: url(#Gradiente_sem_nome_19-20);
      }

      .cls-59 {
        stroke: url(#Gradiente_sem_nome_19-66);
      }

      .cls-60 {
        stroke: url(#Gradiente_sem_nome_19-57);
      }

      .cls-61 {
        stroke: url(#Gradiente_sem_nome_19-52);
      }

      .cls-62 {
        stroke: url(#Gradiente_sem_nome_19-5);
      }

      .cls-63 {
        stroke: url(#Gradiente_sem_nome_19-9);
      }

      .cls-77 {
        fill: url(#Gradiente_sem_nome_27-5);
      }

      .cls-64 {
        stroke: url(#Gradiente_sem_nome_19-53);
      }

      .cls-65 {
        stroke: url(#Gradiente_sem_nome_19);
      }

      .cls-66 {
        stroke: url(#Gradiente_sem_nome_19-16);
      }

      .cls-67 {
        stroke: url(#Gradiente_sem_nome_19-3);
      }

      .cls-78 {
        fill: url(#Gradiente_sem_nome_27-6);
      }

      .cls-79 {
        fill: url(#Gradiente_sem_nome_27-9);
      }
    </style>
    <linearGradient id="Gradiente_sem_nome_27" data-name="Gradiente sem nome 27" x1="303.9" y1="534.37" x2="996.33" y2="534.37" gradientUnits="userSpaceOnUse">
      <stop offset="0" stop-color="#4bdd92"/>
      <stop offset="1" stop-color="#409ffc"/>
    </linearGradient>
    <linearGradient id="Gradiente_sem_nome_27-2" data-name="Gradiente sem nome 27" x1="303.9" y1="554.99" x2="996.33" y2="554.99" xlink:href="#Gradiente_sem_nome_27"/>
    <linearGradient id="Gradiente_sem_nome_27-3" data-name="Gradiente sem nome 27" x1="303.9" y1="554.99" x2="996.33" y2="554.99" xlink:href="#Gradiente_sem_nome_27"/>
    <linearGradient id="Gradiente_sem_nome_27-4" data-name="Gradiente sem nome 27" x1="303.9" y1="546.67" x2="996.33" y2="546.67" xlink:href="#Gradiente_sem_nome_27"/>
    <linearGradient id="Gradiente_sem_nome_27-5" data-name="Gradiente sem nome 27" x1="303.9" y1="554.99" x2="996.33" y2="554.99" xlink:href="#Gradiente_sem_nome_27"/>
    <linearGradient id="Gradiente_sem_nome_27-6" data-name="Gradiente sem nome 27" x1="303.9" y1="554.3" x2="996.33" y2="554.3" xlink:href="#Gradiente_sem_nome_27"/>
    <linearGradient id="Gradiente_sem_nome_27-7" data-name="Gradiente sem nome 27" x1="303.9" y1="575.61" x2="996.33" y2="575.61" xlink:href="#Gradiente_sem_nome_27"/>
    <linearGradient id="Gradiente_sem_nome_27-8" data-name="Gradiente sem nome 27" x1="303.9" x2="996.33" xlink:href="#Gradiente_sem_nome_27"/>
    <linearGradient id="Gradiente_sem_nome_27-9" data-name="Gradiente sem nome 27" x1="303.9" y1="555.68" x2="996.33" y2="555.68" xlink:href="#Gradiente_sem_nome_27"/>
    <linearGradient id="Gradiente_sem_nome_27-10" data-name="Gradiente sem nome 27" x1="303.9" x2="996.33" xlink:href="#Gradiente_sem_nome_27"/>
    <linearGradient id="Gradiente_sem_nome_27-11" data-name="Gradiente sem nome 27" x1="303.9" y1="554.99" x2="996.33" y2="554.99" xlink:href="#Gradiente_sem_nome_27"/>
    <linearGradient id="Gradiente_sem_nome_27-12" data-name="Gradiente sem nome 27" x1="303.9" y1="554.99" x2="996.33" y2="554.99" xlink:href="#Gradiente_sem_nome_27"/>
    <linearGradient id="Gradiente_sem_nome_19" data-name="Gradiente sem nome 19" x1="121.35" y1="514.51" x2="188.93" y2="514.51" gradientUnits="userSpaceOnUse">
      <stop offset="0" stop-color="#4bdd92"/>
      <stop offset="1" stop-color="#409ffc"/>
    </linearGradient>
    <linearGradient id="Gradiente_sem_nome_19-2" data-name="Gradiente sem nome 19" x1="141.38" y1="443.88" x2="151.49" y2="443.88" xlink:href="#Gradiente_sem_nome_19"/>
    <linearGradient id="Gradiente_sem_nome_19-3" data-name="Gradiente sem nome 19" x1="148.22" y1="453.1" x2="178.49" y2="453.1" xlink:href="#Gradiente_sem_nome_19"/>
    <linearGradient id="Gradiente_sem_nome_19-4" data-name="Gradiente sem nome 19" x1="148.22" y1="465.13" x2="191.7" y2="465.13" xlink:href="#Gradiente_sem_nome_19"/>
    <linearGradient id="Gradiente_sem_nome_19-5" data-name="Gradiente sem nome 19" x1="181.89" y1="490.04" x2="188.57" y2="490.04" xlink:href="#Gradiente_sem_nome_19"/>
    <linearGradient id="Gradiente_sem_nome_19-6" data-name="Gradiente sem nome 19" x1="200.89" y1="491.56" x2="210.69" y2="491.56" xlink:href="#Gradiente_sem_nome_19"/>
    <linearGradient id="Gradiente_sem_nome_19-7" data-name="Gradiente sem nome 19" x1="218.94" y1="477.79" x2="228.5" y2="477.79" xlink:href="#Gradiente_sem_nome_19"/>
    <linearGradient id="Gradiente_sem_nome_19-8" data-name="Gradiente sem nome 19" x1="202.07" y1="539.56" x2="237.76" y2="539.56" xlink:href="#Gradiente_sem_nome_19"/>
    <linearGradient id="Gradiente_sem_nome_19-9" data-name="Gradiente sem nome 19" x1="213.94" y1="562.27" x2="251.5" y2="562.27" xlink:href="#Gradiente_sem_nome_19"/>
    <linearGradient id="Gradiente_sem_nome_19-10" data-name="Gradiente sem nome 19" x1="228.98" y1="516.62" x2="245.29" y2="516.62" xlink:href="#Gradiente_sem_nome_19"/>
    <linearGradient id="Gradiente_sem_nome_19-11" data-name="Gradiente sem nome 19" x1="227" y1="572.56" x2="244.76" y2="572.56" xlink:href="#Gradiente_sem_nome_19"/>
    <linearGradient id="Gradiente_sem_nome_19-12" data-name="Gradiente sem nome 19" x1="172.79" y1="605.2" x2="195.04" y2="605.2" xlink:href="#Gradiente_sem_nome_19"/>
    <linearGradient id="Gradiente_sem_nome_19-13" data-name="Gradiente sem nome 19" x1="137.89" y1="587.39" x2="159.34" y2="587.39" xlink:href="#Gradiente_sem_nome_19"/>
    <linearGradient id="Gradiente_sem_nome_19-14" data-name="Gradiente sem nome 19" x1="99.81" y1="590.58" x2="127.91" y2="590.58" xlink:href="#Gradiente_sem_nome_19"/>
    <linearGradient id="Gradiente_sem_nome_19-15" data-name="Gradiente sem nome 19" x1="82.8" y1="585.93" x2="98.5" y2="585.93" xlink:href="#Gradiente_sem_nome_19"/>
    <linearGradient id="Gradiente_sem_nome_19-16" data-name="Gradiente sem nome 19" x1="66.35" y1="540.1" x2="81.48" y2="540.1" xlink:href="#Gradiente_sem_nome_19"/>
    <linearGradient id="Gradiente_sem_nome_19-17" data-name="Gradiente sem nome 19" x1="78.05" y1="518.28" x2="141.89" y2="518.28" xlink:href="#Gradiente_sem_nome_19"/>
    <linearGradient id="Gradiente_sem_nome_19-18" data-name="Gradiente sem nome 19" x1="86.75" y1="557.93" x2="127.98" y2="557.93" xlink:href="#Gradiente_sem_nome_19"/>
    <linearGradient id="Gradiente_sem_nome_19-19" data-name="Gradiente sem nome 19" x1="130.97" y1="581" x2="147.19" y2="581" xlink:href="#Gradiente_sem_nome_19"/>
    <linearGradient id="Gradiente_sem_nome_19-20" data-name="Gradiente sem nome 19" x1="82.8" y1="525.52" x2="175.78" y2="525.52" xlink:href="#Gradiente_sem_nome_19"/>
    <linearGradient id="Gradiente_sem_nome_19-21" data-name="Gradiente sem nome 19" x1="122.1" y1="552.02" x2="132.25" y2="552.02" xlink:href="#Gradiente_sem_nome_19"/>
    <linearGradient id="Gradiente_sem_nome_19-22" data-name="Gradiente sem nome 19" x1="63.39" y1="522.42" x2="71.61" y2="522.42" xlink:href="#Gradiente_sem_nome_19"/>
    <linearGradient id="Gradiente_sem_nome_19-23" data-name="Gradiente sem nome 19" x1="79.21" y1="556.55" x2="87.44" y2="556.55" xlink:href="#Gradiente_sem_nome_19"/>
    <linearGradient id="Gradiente_sem_nome_19-24" data-name="Gradiente sem nome 19" x1="127.39" y1="563.28" x2="135.61" y2="563.28" xlink:href="#Gradiente_sem_nome_19"/>
    <linearGradient id="Gradiente_sem_nome_19-25" data-name="Gradiente sem nome 19" x1="114.63" y1="544.18" x2="122.85" y2="544.18" xlink:href="#Gradiente_sem_nome_19"/>
    <linearGradient id="Gradiente_sem_nome_19-26" data-name="Gradiente sem nome 19" x1="81.05" y1="535.5" x2="89.28" y2="535.5" xlink:href="#Gradiente_sem_nome_19"/>
    <linearGradient id="Gradiente_sem_nome_19-27" data-name="Gradiente sem nome 19" x1="125.06" y1="579.9" x2="133.29" y2="579.9" xlink:href="#Gradiente_sem_nome_19"/>
    <linearGradient id="Gradiente_sem_nome_19-28" data-name="Gradiente sem nome 19" x1="93.85" y1="570.5" x2="102.08" y2="570.5" xlink:href="#Gradiente_sem_nome_19"/>
    <linearGradient id="Gradiente_sem_nome_19-29" data-name="Gradiente sem nome 19" x1="76.84" y1="576.53" x2="85.07" y2="576.53" xlink:href="#Gradiente_sem_nome_19"/>
    <linearGradient id="Gradiente_sem_nome_19-30" data-name="Gradiente sem nome 19" x1="96.23" y1="595.42" x2="104.45" y2="595.42" xlink:href="#Gradiente_sem_nome_19"/>
    <linearGradient id="Gradiente_sem_nome_19-31" data-name="Gradiente sem nome 19" x1="112.45" y1="609.47" x2="120.68" y2="609.47" xlink:href="#Gradiente_sem_nome_19"/>
    <linearGradient id="Gradiente_sem_nome_19-32" data-name="Gradiente sem nome 19" x1="63.39" y1="522.42" x2="71.61" y2="522.42" xlink:href="#Gradiente_sem_nome_19"/>
    <linearGradient id="Gradiente_sem_nome_19-33" data-name="Gradiente sem nome 19" x1="142.32" y1="545.96" x2="150.55" y2="545.96" xlink:href="#Gradiente_sem_nome_19"/>
    <linearGradient id="Gradiente_sem_nome_19-34" data-name="Gradiente sem nome 19" x1="125.8" y1="613.84" x2="134.03" y2="613.84" xlink:href="#Gradiente_sem_nome_19"/>
    <linearGradient id="Gradiente_sem_nome_19-35" data-name="Gradiente sem nome 19" x1="154.36" y1="546.26" x2="162.59" y2="546.26" xlink:href="#Gradiente_sem_nome_19"/>
    <linearGradient id="Gradiente_sem_nome_19-36" data-name="Gradiente sem nome 19" x1="156.55" y1="624.41" x2="164.78" y2="624.41" xlink:href="#Gradiente_sem_nome_19"/>
    <linearGradient id="Gradiente_sem_nome_19-37" data-name="Gradiente sem nome 19" x1="169.43" y1="622.33" x2="177.66" y2="622.33" xlink:href="#Gradiente_sem_nome_19"/>
    <linearGradient id="Gradiente_sem_nome_19-38" data-name="Gradiente sem nome 19" x1="192.56" y1="616.2" x2="200.79" y2="616.2" xlink:href="#Gradiente_sem_nome_19"/>
    <linearGradient id="Gradiente_sem_nome_19-39" data-name="Gradiente sem nome 19" x1="170.91" y1="570.5" x2="179.14" y2="570.5" xlink:href="#Gradiente_sem_nome_19"/>
    <linearGradient id="Gradiente_sem_nome_19-40" data-name="Gradiente sem nome 19" x1="184.07" y1="583.26" x2="192.3" y2="583.26" xlink:href="#Gradiente_sem_nome_19"/>
    <linearGradient id="Gradiente_sem_nome_19-41" data-name="Gradiente sem nome 19" x1="71.3" y1="503.13" x2="79.53" y2="503.13" xlink:href="#Gradiente_sem_nome_19"/>
    <linearGradient id="Gradiente_sem_nome_19-42" data-name="Gradiente sem nome 19" x1="76.84" y1="482.37" x2="85.07" y2="482.37" xlink:href="#Gradiente_sem_nome_19"/>
    <linearGradient id="Gradiente_sem_nome_19-43" data-name="Gradiente sem nome 19" x1="89.9" y1="463.9" x2="98.12" y2="463.9" xlink:href="#Gradiente_sem_nome_19"/>
    <linearGradient id="Gradiente_sem_nome_19-44" data-name="Gradiente sem nome 19" x1="114.63" y1="498.68" x2="122.85" y2="498.68" xlink:href="#Gradiente_sem_nome_19"/>
    <linearGradient id="Gradiente_sem_nome_19-45" data-name="Gradiente sem nome 19" x1="117.99" y1="443.88" x2="126.22" y2="443.88" xlink:href="#Gradiente_sem_nome_19"/>
    <linearGradient id="Gradiente_sem_nome_19-46" data-name="Gradiente sem nome 19" x1="135.58" y1="438.02" x2="143.81" y2="438.02" xlink:href="#Gradiente_sem_nome_19"/>
    <linearGradient id="Gradiente_sem_nome_19-47" data-name="Gradiente sem nome 19" x1="148.39" y1="450.61" x2="156.62" y2="450.61" xlink:href="#Gradiente_sem_nome_19"/>
    <linearGradient id="Gradiente_sem_nome_19-48" data-name="Gradiente sem nome 19" x1="141.14" y1="467.26" x2="149.36" y2="467.26" xlink:href="#Gradiente_sem_nome_19"/>
    <linearGradient id="Gradiente_sem_nome_19-49" data-name="Gradiente sem nome 19" x1="141.14" y1="481.47" x2="149.36" y2="481.47" xlink:href="#Gradiente_sem_nome_19"/>
    <linearGradient id="Gradiente_sem_nome_19-50" data-name="Gradiente sem nome 19" x1="160.1" y1="438.02" x2="168.32" y2="438.02" xlink:href="#Gradiente_sem_nome_19"/>
    <linearGradient id="Gradiente_sem_nome_19-51" data-name="Gradiente sem nome 19" x1="186.84" y1="443.88" x2="195.06" y2="443.88" xlink:href="#Gradiente_sem_nome_19"/>
    <linearGradient id="Gradiente_sem_nome_19-52" data-name="Gradiente sem nome 19" x1="186.84" y1="479.01" x2="195.06" y2="479.01" xlink:href="#Gradiente_sem_nome_19"/>
    <linearGradient id="Gradiente_sem_nome_19-53" data-name="Gradiente sem nome 19" x1="185.45" y1="500.07" x2="193.68" y2="500.07" xlink:href="#Gradiente_sem_nome_19"/>
    <linearGradient id="Gradiente_sem_nome_19-54" data-name="Gradiente sem nome 19" x1="205.83" y1="453.97" x2="214.06" y2="453.97" xlink:href="#Gradiente_sem_nome_19"/>
    <linearGradient id="Gradiente_sem_nome_19-55" data-name="Gradiente sem nome 19" x1="223.64" y1="467.26" x2="231.86" y2="467.26" xlink:href="#Gradiente_sem_nome_19"/>
    <linearGradient id="Gradiente_sem_nome_19-56" data-name="Gradiente sem nome 19" x1="212.56" y1="486.71" x2="220.78" y2="486.71" xlink:href="#Gradiente_sem_nome_19"/>
    <linearGradient id="Gradiente_sem_nome_19-57" data-name="Gradiente sem nome 19" x1="235.51" y1="484.44" x2="243.73" y2="484.44" xlink:href="#Gradiente_sem_nome_19"/>
    <linearGradient id="Gradiente_sem_nome_19-58" data-name="Gradiente sem nome 19" x1="198.71" y1="595.42" x2="206.94" y2="595.42" xlink:href="#Gradiente_sem_nome_19"/>
    <linearGradient id="Gradiente_sem_nome_19-59" data-name="Gradiente sem nome 19" x1="210.58" y1="606.11" x2="218.81" y2="606.11" xlink:href="#Gradiente_sem_nome_19"/>
    <linearGradient id="Gradiente_sem_nome_19-60" data-name="Gradiente sem nome 19" x1="230.36" y1="589.29" x2="238.59" y2="589.29" xlink:href="#Gradiente_sem_nome_19"/>
    <linearGradient id="Gradiente_sem_nome_19-61" data-name="Gradiente sem nome 19" x1="244.01" y1="557.93" x2="252.24" y2="557.93" xlink:href="#Gradiente_sem_nome_19"/>
    <linearGradient id="Gradiente_sem_nome_19-62" data-name="Gradiente sem nome 19" x1="249.53" y1="520.25" x2="257.76" y2="520.25" xlink:href="#Gradiente_sem_nome_19"/>
    <linearGradient id="Gradiente_sem_nome_19-63" data-name="Gradiente sem nome 19" x1="225.62" y1="532.14" x2="233.84" y2="532.14" xlink:href="#Gradiente_sem_nome_19"/>
    <linearGradient id="Gradiente_sem_nome_19-64" data-name="Gradiente sem nome 19" x1="244.01" y1="503.43" x2="252.24" y2="503.43" xlink:href="#Gradiente_sem_nome_19"/>
    <linearGradient id="Gradiente_sem_nome_19-65" data-name="Gradiente sem nome 19" x1="95.46" y1="481.49" x2="117.06" y2="481.49" xlink:href="#Gradiente_sem_nome_19"/>
    <linearGradient id="Gradiente_sem_nome_19-66" data-name="Gradiente sem nome 19" x1="141.14" y1="531.21" x2="149.36" y2="531.21" xlink:href="#Gradiente_sem_nome_19"/>
    <linearGradient id="Gradiente_sem_nome_19-67" data-name="Gradiente sem nome 19" x1="197.52" y1="528.36" x2="205.75" y2="528.36" xlink:href="#Gradiente_sem_nome_19"/>
  </defs>
  <g>
    <path class="cls-75" d="m305.04,488.86c0-1.37,1.1-2.61,2.61-2.61h54.99c1.51,0,2.61,1.24,2.61,2.61v7.7c0,1.37-1.1,2.61-2.61,2.61h-43.44v31.76h36.71c1.37,0,2.61,1.24,2.61,2.61v7.56c0,1.38-1.24,2.61-2.61,2.61h-36.71v36.16c0,1.38-1.24,2.61-2.61,2.61h-8.94c-1.51,0-2.61-1.24-2.61-2.61v-91.01Z"/>
    <path class="cls-76" d="m392.61,547.7c5.77,0,10.86,1.65,10.86,1.65.14-8.66-1.51-12.1-8.52-12.1-6.32,0-12.51,1.65-15.4,2.47-1.65.41-2.61-.69-3.02-2.2l-1.1-5.09c-.41-1.79.55-2.75,1.79-3.16.96-.41,8.8-3.16,18.97-3.16,17.6,0,19.25,10.72,19.25,24.47v29.28c0,1.38-1.24,2.61-2.61,2.61h-3.85c-1.24,0-1.79-.55-2.34-1.92l-1.37-3.71c-3.02,2.89-8.39,7.01-16.91,7.01-10.31,0-17.73-7.01-17.73-18.42,0-10.04,7.97-17.73,22-17.73Zm-1.65,26.4c5.5,0,10.72-4.12,12.37-6.87v-8.8c-.82-.55-4.67-2.2-9.62-2.2-6.6,0-11.14,3.44-11.14,9.07,0,4.95,3.3,8.8,8.39,8.8Z"/>
    <path class="cls-73" d="m458.87,526.12c8.39,0,14.85,3.44,19.93,9.76.96,1.24.69,2.89-.55,3.85l-4.54,4.12c-1.65,1.51-2.61.41-3.71-.55-2.47-2.75-6.46-5.23-11-5.23-8.94,0-15.95,7.56-15.95,16.91s6.87,17.05,15.81,17.05c7.01,0,9.9-3.57,12.78-6.32,1.24-1.24,2.47-1.24,3.71-.28l3.71,3.02c1.37,1.1,1.92,2.47.96,3.85-4.4,7.01-11.82,11.55-21.31,11.55-15.4,0-28.73-12.24-28.73-28.73s13.61-29.01,28.87-29.01Z"/>
    <path class="cls-70" d="m498.73,538.9h-5.77c-1.51,0-2.61-1.24-2.61-2.61v-6.19c0-1.51,1.1-2.61,2.61-2.61h5.77v-15.26c0-1.37,1.24-2.61,2.61-2.61l7.84-.14c1.37,0,2.47,1.24,2.47,2.61v15.4h14.02c1.51,0,2.61,1.1,2.61,2.61v6.19c0,1.37-1.1,2.61-2.61,2.61h-14.02v27.22c0,4.67,1.79,5.5,4.4,5.5,2.89,0,6.74-1.65,8.39-2.47,1.79-.83,2.61,0,3.16,1.24l2.47,6.05c.69,1.51.14,2.61-1.24,3.3-1.37.83-9.49,4.12-16.08,4.12-10.86,0-14.02-6.6-14.02-16.36v-28.6Z"/>
    <path class="cls-77" d="m567.74,526.12c15.4,0,27.77,13.2,27.77,28.73s-12.37,29.01-27.77,29.01-27.77-13.2-27.77-29.01,12.37-28.73,27.77-28.73Zm0,45.92c8.66,0,15.54-7.7,15.54-17.18s-6.87-16.77-15.54-16.77-15.53,7.56-15.53,16.77,6.87,17.18,15.53,17.18Z"/>
    <path class="cls-78" d="m610.63,530.1c0-1.37,1.24-2.61,2.61-2.61h3.99c.96,0,2.06.82,2.34,1.92l1.51,4.67c.96-1.37,6.05-7.97,16.08-7.97,5.22,0,11.55,1.38,10.04,5.09l-3.3,6.74c-.69,1.51-2.06,1.79-3.3,1.24-.82-.41-2.89-.96-4.67-.96-7.97,0-11.82,5.77-12.37,6.74v34.92c0,2.34-1.51,2.61-3.71,2.61h-6.6c-1.37,0-2.61-1.24-2.61-2.61v-49.77Z"/>
    <path class="cls-72" d="m652.56,531.07c-.83-1.79.28-3.57,2.34-3.57h9.07c.82,0,1.92.69,2.34,1.51l17.05,36.57h.14l16.5-36.57c.55-1.24,1.65-1.51,2.89-1.51h7.84c2.2,0,3.3,1.79,2.34,3.57l-42.07,91.01c-.41.83-1.24,1.65-2.34,1.65h-8.25c-2.06,0-3.3-1.79-2.34-3.71l18.42-39.45-23.92-49.49Z"/>
    <path class="cls-68" d="m726.79,488.86c0-1.37,1.1-2.61,2.61-2.61h31.34c16.91,0,30.79,13.75,30.79,30.38s-13.88,30.93-30.66,30.93h-19.93v32.31c0,1.38-1.24,2.61-2.61,2.61h-8.94c-1.51,0-2.61-1.24-2.61-2.61v-91.01Zm33.13,45.23c9.49,0,17.46-7.7,17.46-17.6,0-9.35-7.97-16.5-17.46-16.5h-18.97v34.09h18.97Z"/>
    <path class="cls-79" d="m801.71,530.1c0-1.37,1.24-2.61,2.61-2.61h7.84c1.38,0,2.61,1.24,2.61,2.61v28.18c0,8.94,4.26,13.75,11.27,13.75,8.11,0,13.2-6.6,13.61-9.07v-32.86c0-2.2,1.1-2.61,3.02-2.61h7.15c1.38,0,2.61,1.24,2.61,2.61v49.77c0,1.38-1.24,2.61-2.61,2.61h-3.85c-1.38,0-2.06-.96-2.48-2.2l-1.37-3.99c-1.24,1.1-7.01,7.56-18.15,7.56-16.5,0-22.27-11.69-22.27-25.98v-27.77Z"/>
    <path class="cls-71" d="m871.68,488.86c0-1.37,1.24-2.61,2.61-2.61h7.84c1.37,0,2.61,1.24,2.61,2.61v91.01c0,1.38-1.24,2.61-2.61,2.61h-7.84c-1.37,0-2.61-1.24-2.61-2.61v-91.01Z"/>
    <path class="cls-69" d="m900.68,575.33l2.89-5.36c.55-1.1,2.06-1.51,3.44-.69,0,0,6.05,3.57,12.79,3.57,4.12,0,6.74-1.65,6.74-4.67,0-3.71-3.02-5.5-10.59-8.94-8.52-3.71-15.67-8.94-15.67-18.01,0-6.87,5.64-15.12,18.83-15.12,7.7,0,13.47,2.47,16.22,4.26,1.24.83,1.92,2.61,1.1,3.99l-2.47,4.67c-.69,1.24-2.47,1.65-3.57,1.1,0,0-6.05-2.89-11.27-2.89-4.67,0-6.19,2.06-6.19,4.12,0,3.57,3.44,5.09,8.8,7.42,10.04,4.4,18.28,8.66,18.28,18.97,0,8.52-8.11,16.08-20.35,16.08-9.21,0-15.26-3.3-18.15-5.64-.82-.55-1.37-1.79-.82-2.89Z"/>
    <path class="cls-74" d="m978.08,526.12c14.3,0,25.29,10.72,25.29,25.43,0,.96-.14,2.75-.28,3.71-.14,1.38-1.24,2.34-2.47,2.34h-37.39c.41,7.42,6.87,14.71,15.81,14.71,4.95,0,9.49-2.2,12.23-3.99,1.65-.96,2.61-1.51,3.71-.14l3.85,5.22c.96,1.1,1.38,2.2-.28,3.57-3.99,3.44-11.13,6.87-20.35,6.87-16.63,0-27.63-13.06-27.63-28.87s11-28.87,27.5-28.87Zm12.51,22.82c-.41-6.6-5.91-12.23-12.65-12.23-7.42,0-13.2,5.36-14.02,12.23h26.67Z"/>
  </g>
  <g>
    <polyline class="cls-65" points="122.1 448.03 122.1 484.83 135.56 498.68 164.44 498.68 188.18 520.84 188.18 580.98"/>
    <line class="cls-38" x1="141.89" y1="439.72" x2="150.99" y2="448.03"/>
    <polyline class="cls-67" points="166.02 439.72 177.5 452.39 166.02 466.24 148.22 466.24"/>
    <polyline class="cls-55" points="148.22 481.47 167.21 481.47 190.95 458.72 190.95 448.03"/>
    <polyline class="cls-62" points="188.18 481.47 182.64 484.83 182.64 494.33 187.59 498.68"/>
    <polyline class="cls-40" points="209.94 457.93 209.94 477.71 201.64 484.04 201.64 525.19"/>
    <polyline class="cls-57" points="219.44 484.44 227.75 476.92 227.75 470.59"/>
    <polyline class="cls-4" points="237.25 487.21 216.28 506.59 216.28 535.48 202.82 549.33 202.82 592.46"/>
    <polyline class="cls-63" points="214.69 602.74 214.69 557.24 227.75 543.39 246.74 543.39 246.74 525.19 251.1 522.42"/>
    <polyline class="cls-25" points="229.73 528.36 229.73 520.44 244.76 505.41"/>
    <polyline class="cls-3" points="244.76 557.64 232.89 557.64 227.75 562.78 227.75 582.56 231.48 587.79"/>
    <polyline class="cls-27" points="173.54 618.97 173.54 593.25 194.51 614.22"/>
    <polyline class="cls-11" points="157.11 624.41 139.7 624.41 158.59 605.51 158.59 549.62"/>
    <polyline class="cls-42" points="100.34 573.46 126.85 599.97 119.14 607.69"/>
    <line class="cls-22" x1="83.33" y1="578.61" x2="97.97" y2="593.25"/>
    <polyline class="cls-66" points="67.1 525.19 67.1 540.62 80.95 554.47"/>
    <polyline class="cls-15" points="78.58 505.41 104.1 530.93 141.89 530.93"/>
    <line class="cls-1" x1="87.28" y1="537.85" x2="127.45" y2="578.01"/>
    <polyline class="cls-45" points="146.44 549.33 146.44 597.21 131.5 612.14"/>
    <polyline class="cls-58" points="83.33 484.44 113.5 514.61 158.8 514.61 175.03 530.83 175.03 567.13"/>
    <polyline class="cls-48" points="122.1 544.18 131.5 544.18 131.5 560.6"/>
    <circle class="cls-30" cx="67.5" cy="522.42" r="3.36"/>
    <circle class="cls-21" cx="83.33" cy="556.55" r="3.36"/>
    <circle class="cls-32" cx="131.5" cy="563.28" r="3.36"/>
    <circle class="cls-18" cx="118.74" cy="544.18" r="3.36"/>
    <circle class="cls-14" cx="85.17" cy="535.5" r="3.36"/>
    <circle class="cls-5" cx="129.18" cy="579.9" r="3.36"/>
    <circle class="cls-6" cx="97.97" cy="570.5" r="3.36"/>
    <circle class="cls-41" cx="80.95" cy="576.53" r="3.36"/>
    <circle class="cls-53" cx="100.34" cy="595.42" r="3.36"/>
    <circle class="cls-49" cx="116.56" cy="609.47" r="3.36"/>
    <circle class="cls-7" cx="67.5" cy="522.42" r="3.36"/>
    <circle class="cls-37" cx="146.44" cy="545.96" r="3.36"/>
    <circle class="cls-35" cx="129.92" cy="613.84" r="3.36"/>
    <circle class="cls-16" cx="158.48" cy="546.26" r="3.36"/>
    <circle class="cls-33" cx="160.67" cy="624.41" r="3.36"/>
    <circle class="cls-44" cx="173.54" cy="622.33" r="3.36"/>
    <circle class="cls-54" cx="196.67" cy="616.2" r="3.36"/>
    <circle class="cls-50" cx="175.03" cy="570.5" r="3.36"/>
    <circle class="cls-9" cx="188.18" cy="583.26" r="3.36"/>
    <circle class="cls-10" cx="75.41" cy="503.13" r="3.36"/>
    <circle class="cls-39" cx="80.95" cy="482.37" r="3.36"/>
    <circle class="cls-19" cx="94.01" cy="463.9" r="3.36"/>
    <circle class="cls-31" cx="118.74" cy="498.68" r="3.36"/>
    <circle class="cls-28" cx="122.1" cy="443.88" r="3.36"/>
    <circle class="cls-12" cx="139.7" cy="438.02" r="3.36"/>
    <circle class="cls-8" cx="152.51" cy="450.61" r="3.36"/>
    <circle class="cls-29" cx="145.25" cy="467.26" r="3.36"/>
    <circle class="cls-17" cx="145.25" cy="481.47" r="3.36"/>
    <circle class="cls-20" cx="164.21" cy="438.02" r="3.36"/>
    <circle class="cls-13" cx="190.95" cy="443.88" r="3.36"/>
    <circle class="cls-61" cx="190.95" cy="479.01" r="3.36"/>
    <circle class="cls-64" cx="189.57" cy="500.07" r="3.36"/>
    <circle class="cls-36" cx="209.94" cy="453.97" r="3.36"/>
    <circle class="cls-51" cx="227.75" cy="467.26" r="3.36"/>
    <circle class="cls-23" cx="216.67" cy="486.71" r="3.36"/>
    <circle class="cls-60" cx="239.62" cy="484.44" r="3.36"/>
    <circle class="cls-26" cx="202.82" cy="595.42" r="3.36"/>
    <circle class="cls-34" cx="214.69" cy="606.11" r="3.36"/>
    <circle class="cls-52" cx="234.48" cy="589.29" r="3.36"/>
    <circle class="cls-46" cx="248.13" cy="557.93" r="3.36"/>
    <circle class="cls-24" cx="253.65" cy="520.25" r="3.36"/>
    <circle class="cls-56" cx="229.73" cy="532.14" r="3.36"/>
    <circle class="cls-43" cx="248.13" cy="503.43" r="3.36"/>
    <polyline class="cls-2" points="95.99 466.24 103.9 474.15 103.9 485.62 116.56 496.7"/>
    <circle class="cls-59" cx="145.25" cy="531.21" r="3.36"/>
    <circle class="cls-47" cx="201.64" cy="528.36" r="3.36"/>
  </g>
</svg>