<svg xmlns="http://www.w3.org/2000/svg" id="Camada_11" viewBox="168.82 308.61 749.15 414.6"><defs><style>.cls-1{fill:#fff;}</style></defs><g><path class="cls-1" d="M185.24,706.43h-6.42v15.78h-10v-46.23h18.66c9.26,0,16.16,6.37,16.16,15.29,0,6.05-3.31,10.99-8.43,13.46l10.23,17.48h-11.17l-9.03-15.78Zm-6.42-9.24h8.01c4.18,0,6.68-2.51,6.68-5.99s-2.5-5.98-6.68-5.98h-8.01v11.97Z"/><path class="cls-1" d="M268.16,699.09c0-13.72,10.56-24.12,24.67-24.12s24.56,10.34,24.56,24.12-10.5,24.12-24.56,24.12-24.67-10.4-24.67-24.12Zm39.1,0c0-8.38-6.19-14.68-14.42-14.68s-14.54,6.36-14.54,14.68,6.3,14.69,14.54,14.69,14.42-6.3,14.42-14.69Z"/><path class="cls-1" d="M418.25,708.86c0,7.41-6.52,13.34-14.55,13.34h-19.65v-46.23h19.12c7.97,0,13.9,5.08,13.9,11.89,0,3.97-1.95,7.68-5.21,9.96,4.08,2.14,6.4,6.15,6.4,11.04Zm-10.04-1.05c0-2.97-2.17-5.15-5.46-5.15h-8.88v10.37h8.88c3.29,0,5.46-2.18,5.46-5.21Zm-.85-18.39c0-2.9-2.01-4.93-5.15-4.93h-8.33v9.86h8.33c3.15,0,5.15-2.04,5.15-4.93h0Z"/><path class="cls-1" d="M482.52,699.09c0-13.72,10.56-24.12,24.67-24.12s24.56,10.34,24.56,24.12-10.51,24.12-24.56,24.12-24.67-10.4-24.67-24.12Zm39.1,0c0-8.38-6.19-14.68-14.43-14.68s-14.53,6.36-14.53,14.68,6.3,14.69,14.53,14.69,14.43-6.3,14.43-14.69Z"/><path class="cls-1" d="M628.82,685.26h-12.85v36.95h-10v-36.95h-12.85v-9.28h35.71v9.28Z"/><path class="cls-1" d="M694.34,675.98h10v46.23h-10v-46.23Z"/><path class="cls-1" d="M794.97,723.2c-13.58,0-23.87-10.41-23.87-24.06s10.29-24.17,23.87-24.17c11.25,0,20.22,7.45,22.37,18.41h-10.02c-1.89-5.46-6.52-8.87-12.35-8.87-7.82,0-13.74,6.31-13.74,14.62s5.92,14.51,13.74,14.51c6.08,0,10.77-3.67,12.43-9.53h10.08c-2.09,11.43-11.06,19.07-22.52,19.07h0Z"/><path class="cls-1" d="M880.9,707.22h10.08c0,4.47,3.69,6.62,7.78,6.62,3.76,0,7.45-1.99,7.45-5.44s-4.21-4.57-9.23-5.74c-6.97-1.72-15.44-3.74-15.44-13.7,0-8.87,6.53-13.86,16.77-13.86s16.67,5.67,16.67,14.88h-9.88c0-3.98-3.28-5.85-7.02-5.85-3.24,0-6.53,1.37-6.53,4.4,0,3.25,4.02,4.24,8.91,5.41,7.05,1.78,15.9,3.98,15.9,14.34s-7.95,14.83-17.52,14.83c-10.62,0-17.93-5.96-17.93-15.9Z"/></g><path class="cls-1" d="M324.49,553.61l-.27,74.49s89.45,6.59,134.86-68l-67.17-32.26s-23.64,29.02-67.42,25.78Z"/><rect class="cls-1" x="845.03" y="428.95" width="72.94" height="198.15"/><path class="cls-1" d="M618.14,384.23h130.16v-72.59h-130.66c-25.95,0-48.14,9.22-66.57,27.66-13.09,13.09-21.43,28.09-25.23,44.93h92.29Z"/><path class="cls-1" d="M522.87,428.95c3.6,17.52,12.11,33.06,25.63,46.58,18.43,18.44,40.73,28,66.68,28h13.72c3.72,0,8.24,.03,10.72,.03s5.23-.03,6.71-.03-.74,0,0,0-.35,0,0,0c.74,0,3.03-.09,3.2-.09h20.95c3.72,0,8.13-.22,13.4,.29,11.23,1.09,18.3,6.89,21.44,14.73,3.13,7.84,2.85,15.52-.87,23.03-3.72,7.51-10.54,11.85-20.45,13.02h-145.04v72.59h146.03c26.44-.83,48.68-10.68,66.69-29.54,18.01-18.86,27.02-41.8,27.02-68.84v-.75c0-27.2-9.21-50.4-27.64-69.59-18.44-19.19-41.28-28.79-68.55-28.79h-66.94"/><path class="cls-1" d="M485.02,498.48s14.59-72.97-27.57-128.1c0,0-47.03-61.62-124.86-61.62,0,0-84.32-6.49-132.97,64.86,0,0-51.89,64.86-19.46,154.05,0,0,29.19,76.21,102.16,92.43l1.62-79.46s-43.78-24.32-43.78-71.35,27.57-77.83,53.51-87.56c0,0,42.16-21.08,82.7,6.49,0,0,30.81,17.84,38.51,52.32h-90.67l.74,58.05,160.06-.1Z"/><polygon class="cls-1" points="845.03 311.29 845.03 384.23 917.97 384.23 845.03 311.29"/></svg>