<?xml version="1.0" encoding="utf-8"?>
<svg viewBox="163.48 344.3 711.99 394.05" xmlns="http://www.w3.org/2000/svg">
  <g>
    <path d="M179.08,722.39h-6.1v15h-9.5v-43.94h17.73c8.8,0,15.36,6.06,15.36,14.53,0,5.75-3.15,10.44-8.01,12.79l9.72,16.61h-10.62l-8.58-15Zm-6.1-8.78h7.61c3.97,0,6.35-2.39,6.35-5.69s-2.37-5.69-6.35-5.69h-7.61v11.38Z" style="fill: rgb(111, 111, 111);"/>
    <path d="M257.89,715.42c0-13.04,10.04-22.93,23.45-22.93s23.34,9.83,23.34,22.93-9.98,22.93-23.34,22.93-23.45-9.88-23.45-22.93Zm37.16,0c0-7.97-5.88-13.95-13.71-13.95s-13.82,6.05-13.82,13.95,5.99,13.96,13.82,13.96,13.71-5.99,13.71-13.96Z" style="fill: rgb(111, 111, 111);"/>
    <path d="M400.53,724.71c0,7.05-6.2,12.68-13.83,12.68h-18.68v-43.94h18.17c7.58,0,13.21,4.83,13.21,11.3,0,3.78-1.86,7.3-4.95,9.47,3.88,2.03,6.08,5.85,6.08,10.49Zm-9.54-1c0-2.82-2.06-4.9-5.19-4.9h-8.44v9.85h8.44c3.13,0,5.19-2.07,5.19-4.96Zm-.81-17.47c0-2.76-1.91-4.69-4.89-4.69h-7.92v9.37h7.92c2.99,0,4.89-1.94,4.89-4.69h0Z" style="fill: rgb(111, 111, 111);"/>
    <path d="M461.62,715.42c0-13.04,10.04-22.93,23.45-22.93s23.34,9.83,23.34,22.93-9.99,22.93-23.34,22.93-23.45-9.88-23.45-22.93Zm37.16,0c0-7.97-5.89-13.95-13.71-13.95s-13.81,6.05-13.81,13.95,5.99,13.96,13.81,13.96,13.71-5.99,13.71-13.96Z" style="fill: rgb(111, 111, 111);"/>
    <path d="M600.66,702.27h-12.22v35.12h-9.51v-35.12h-12.22v-8.82h33.94v8.82Z" style="fill: rgb(111, 111, 111);"/>
    <path d="M662.93,693.45h9.5v43.94h-9.5v-43.94Z" style="fill: rgb(111, 111, 111);"/>
    <path d="M758.57,738.34c-12.91,0-22.69-9.89-22.69-22.87s9.78-22.97,22.69-22.97c10.69,0,19.22,7.08,21.26,17.5h-9.53c-1.8-5.19-6.19-8.43-11.73-8.43-7.43,0-13.05,5.99-13.05,13.9s5.62,13.79,13.05,13.79c5.78,0,10.24-3.49,11.82-9.06h9.58c-1.98,10.86-10.52,18.13-21.4,18.13h0Z" style="fill: rgb(111, 111, 111);"/>
    <path d="M840.24,723.15h9.58c0,4.25,3.51,6.3,7.39,6.3,3.58,0,7.08-1.89,7.08-5.17s-4.01-4.34-8.77-5.45c-6.62-1.63-14.67-3.55-14.67-13.02,0-8.43,6.21-13.18,15.93-13.18s15.84,5.39,15.84,14.15h-9.39c0-3.78-3.12-5.56-6.67-5.56-3.08,0-6.2,1.31-6.2,4.18,0,3.09,3.82,4.03,8.47,5.14,6.7,1.7,15.11,3.78,15.11,13.63s-7.56,14.09-16.65,14.09c-10.09,0-17.04-5.67-17.04-15.11Z" style="fill: rgb(111, 111, 111);"/>
  </g>
  <path d="M311.42,577.16l-.25,70.79s85.02,6.26,128.17-64.63l-63.84-30.66s-22.46,27.58-64.07,24.5Z" style="fill: rgb(111, 111, 111);"/>
  <rect x="806.15" y="458.68" width="69.32" height="188.32" style="fill: rgb(111, 111, 111);"/>
  <path d="M590.51,416.18h123.71v-68.99h-124.18c-24.66,0-45.75,8.76-63.27,26.29-12.44,12.44-20.37,26.7-23.98,42.7h87.71Z" style="fill: rgb(111, 111, 111);"/>
  <path d="M499.96,458.68c3.42,16.65,11.51,31.42,24.36,44.27,17.52,17.53,38.71,26.61,63.37,26.61h13.04c3.53,0,7.84,.03,10.19,.03s4.97-.03,6.38-.03-.71,0,0,0-.33,0,0,0c.71,0,2.88-.08,3.04-.08h19.91c3.53,0,7.72-.21,12.73,.27,10.67,1.04,17.39,6.55,20.37,14,2.98,7.45,2.71,14.75-.82,21.89-3.53,7.14-10.01,11.26-19.44,12.37h-137.85v68.99h138.79c25.13-.79,46.26-10.15,63.39-28.07,17.12-17.92,25.68-39.73,25.68-65.42v-.71c0-25.85-8.76-47.9-26.27-66.14-17.52-18.24-39.23-27.36-65.15-27.36h-63.62" style="fill: rgb(111, 111, 111);"/>
  <path d="M463.99,524.76s13.87-69.35-26.2-121.75c0,0-44.69-58.56-118.67-58.56,0,0-80.14-6.16-126.37,61.65,0,0-49.32,61.65-18.49,146.41,0,0,27.74,72.43,97.09,87.84l1.54-75.52s-41.61-23.12-41.61-67.81,26.2-73.97,50.86-83.22c0,0,40.07-20.03,78.6,6.16,0,0,29.28,16.95,36.6,49.72h-86.17l.71,55.17,152.12-.1Z" style="fill: rgb(111, 111, 111);"/>
  <polygon points="806.15 346.86 806.15 416.18 875.47 416.18 806.15 346.86" style="fill: rgb(111, 111, 111);"/>
</svg>