<svg xmlns="http://www.w3.org/2000/svg" xmlns:xlink="http://www.w3.org/1999/xlink" id="Camada_6" viewBox="194.23 334.07 715.05 395.73"><defs><style>.cls-1{fill:url(#Gradiente_sem_nome_78-2);}.cls-2{fill:url(#Gradiente_sem_nome_78-6);}.cls-3{fill:url(#Gradiente_sem_nome_78);}.cls-4{fill:url(#Gradiente_sem_nome_78-4);}.cls-5{fill:url(#Gradiente_sem_nome_78-3);}.cls-6{fill:url(#Gradiente_sem_nome_78-5);}.cls-7{fill:#1a2d3d;}</style><linearGradient id="Gradiente_sem_nome_78" x1="406.52" y1="603.13" x2="410.61" y2="351.9" gradientTransform="matrix(1, 0, 0, 1, 0, 0)" gradientUnits="userSpaceOnUse"><stop offset="0" stop-color="#1a2d3d"/><stop offset=".5" stop-color="#007fff"/><stop offset="1" stop-color="#49b6ff"/></linearGradient><linearGradient id="Gradiente_sem_nome_78-2" x1="873.37" y1="610.72" x2="877.46" y2="359.49" xlink:href="#Gradiente_sem_nome_78"/><linearGradient id="Gradiente_sem_nome_78-3" x1="637.91" y1="606.9" x2="641.99" y2="355.66" xlink:href="#Gradiente_sem_nome_78"/><linearGradient id="Gradiente_sem_nome_78-4" x1="652.47" y1="607.13" x2="656.55" y2="355.9" xlink:href="#Gradiente_sem_nome_78"/><linearGradient id="Gradiente_sem_nome_78-5" x1="344.76" y1="602.13" x2="348.84" y2="350.89" xlink:href="#Gradiente_sem_nome_78"/><linearGradient id="Gradiente_sem_nome_78-6" x1="870.58" y1="610.68" x2="874.66" y2="359.44" xlink:href="#Gradiente_sem_nome_78"/></defs><g><path class="cls-7" d="M209.91,713.78h-6.13v15.06h-9.55v-44.12h17.81c8.84,0,15.43,6.08,15.43,14.59,0,5.77-3.16,10.49-8.04,12.84l9.76,16.68h-10.66l-8.62-15.06Zm-6.13-8.82h7.64c3.99,0,6.38-2.4,6.38-5.71s-2.38-5.71-6.38-5.71h-7.64v11.43Z"/><path class="cls-7" d="M289.06,706.78c0-13.1,10.08-23.02,23.55-23.02s23.44,9.87,23.44,23.02-10.03,23.02-23.44,23.02-23.55-9.93-23.55-23.02Zm37.32,0c0-8-5.91-14.01-13.77-14.01s-13.88,6.07-13.88,14.01,6.01,14.02,13.88,14.02,13.77-6.01,13.77-14.02Z"/><path class="cls-7" d="M432.31,716.11c0,7.08-6.22,12.73-13.89,12.73h-18.76v-44.12h18.24c7.61,0,13.27,4.85,13.27,11.35,0,3.79-1.87,7.33-4.97,9.51,3.9,2.04,6.11,5.87,6.11,10.54Zm-9.58-1c0-2.83-2.07-4.92-5.21-4.92h-8.48v9.9h8.48c3.14,0,5.21-2.08,5.21-4.98Zm-.82-17.55c0-2.77-1.92-4.71-4.91-4.71h-7.95v9.41h7.95c3.01,0,4.91-1.95,4.91-4.71h0Z"/><path class="cls-7" d="M493.66,706.78c0-13.1,10.08-23.02,23.55-23.02s23.44,9.87,23.44,23.02-10.03,23.02-23.44,23.02-23.55-9.93-23.55-23.02Zm37.32,0c0-8-5.91-14.01-13.77-14.01s-13.87,6.07-13.87,14.01,6.01,14.02,13.87,14.02,13.77-6.01,13.77-14.02Z"/><path class="cls-7" d="M633.29,693.57h-12.27v35.27h-9.55v-35.27h-12.27v-8.86h34.09v8.86Z"/><path class="cls-7" d="M695.82,684.72h9.55v44.12h-9.55v-44.12Z"/><path class="cls-7" d="M791.87,729.79c-12.96,0-22.79-9.93-22.79-22.96s9.83-23.07,22.79-23.07c10.74,0,19.3,7.11,21.35,17.58h-9.57c-1.8-5.21-6.22-8.46-11.78-8.46-7.46,0-13.11,6.02-13.11,13.96s5.65,13.85,13.11,13.85c5.81,0,10.28-3.51,11.87-9.1h9.62c-1.99,10.91-10.56,18.21-21.49,18.21h0Z"/><path class="cls-7" d="M873.89,714.54h9.62c0,4.26,3.52,6.32,7.43,6.32,3.59,0,7.11-1.9,7.11-5.19s-4.02-4.36-8.81-5.48c-6.65-1.64-14.73-3.57-14.73-13.08,0-8.46,6.23-13.23,16-13.23s15.91,5.41,15.91,14.21h-9.43c0-3.8-3.13-5.58-6.7-5.58-3.1,0-6.23,1.31-6.23,4.2,0,3.1,3.83,4.05,8.5,5.16,6.73,1.7,15.18,3.8,15.18,13.69s-7.59,14.15-16.73,14.15c-10.13,0-17.11-5.69-17.11-15.18Z"/></g><path class="cls-3" d="M342.82,567.92l-.25,71.09s85.38,6.29,128.71-64.9l-64.11-30.79s-22.56,27.7-64.35,24.6Z"/><rect class="cls-1" x="839.66" y="448.95" width="69.62" height="189.12"/><path class="cls-5" d="M623.1,406.26h124.23v-69.28h-124.71c-24.77,0-45.95,8.8-63.54,26.4-12.49,12.5-20.46,26.81-24.08,42.88h88.09Z"/><path class="cls-4" d="M532.16,448.95c3.44,16.72,11.56,31.55,24.46,44.46,17.59,17.6,38.88,26.72,63.64,26.72h13.09c3.55,0,7.87,.03,10.24,.03s4.99-.03,6.41-.03-.71,0,0,0-.33,0,0,0c.71,0,2.89-.08,3.05-.08h20c3.55,0,7.76-.21,12.79,.28,10.71,1.04,17.46,6.57,20.46,14.06,2.99,7.49,2.72,14.81-.83,21.98-3.55,7.17-10.06,11.31-19.52,12.42h-138.43v69.28h139.38c25.23-.8,46.46-10.19,63.66-28.19,17.19-18,25.79-39.9,25.79-65.7v-.72c0-25.96-8.8-48.1-26.39-66.42-17.6-18.32-39.4-27.47-65.43-27.47h-63.89"/><path class="cls-6" d="M496.04,515.3s13.93-69.65-26.31-122.27c0,0-44.88-58.81-119.17-58.81,0,0-80.48-6.19-126.91,61.91,0,0-49.53,61.91-18.57,147.03,0,0,27.86,72.74,97.5,88.22l1.55-75.84s-41.79-23.22-41.79-68.1,26.31-74.29,51.07-83.58c0,0,40.24-20.12,78.93,6.19,0,0,29.41,17.02,36.76,49.94h-86.54l.71,55.4,152.77-.1Z"/><polygon class="cls-2" points="839.66 336.64 839.66 406.26 909.27 406.26 839.66 336.64"/></svg>